<?xml version="1.0" encoding="iso-8859-1"?>
<!-- Generator: Adobe Illustrator 19.0.0, SVG Export Plug-In . SVG Version: 6.00 Build 0)  -->
<svg version="1.1" id="Capa_1" xmlns="http://www.w3.org/2000/svg" xmlns:xlink="http://www.w3.org/1999/xlink" x="0px" y="0px"
	 viewBox="0 0 512.224 512.224" style="enable-background:new 0 0 512.224 512.224;" xml:space="preserve">
<g>
	<g>
		<path d="M504.056,98.112l-112-64c-2.4-1.376-5.152-2.112-7.936-2.112h-48c-8.832,0-16,7.168-16,16c0,8.832,7.168,16,16,16h43.744
			l97.408,55.648l-24.288,85.056l-48.992-12.224c-4.768-1.184-9.856-0.096-13.728,2.912c-3.872,3.04-6.144,7.68-6.144,12.608v272
			h-256V208c0-4.928-2.24-9.536-6.144-12.576c-3.904-3.04-8.992-4.16-13.728-2.912l-48.992,12.224l-24.32-85.056L132.376,64h43.744
			c8.832,0,16-7.168,16-16c0-8.832-7.168-16-16-16h-48c-2.784,0-5.504,0.736-7.936,2.112l-112,64
			c-6.4,3.648-9.472,11.2-7.456,18.272l32,112c2.4,8.32,10.976,13.184,19.264,11.136l44.128-11.008V496c0,8.832,7.168,16,16,16h288
			c8.832,0,16-7.168,16-16V228.512l44.096,11.008c8.256,2.144,16.896-2.816,19.264-11.136l32-112
			C513.528,109.312,510.456,101.76,504.056,98.112z"/>
	</g>
</g>
<g>
	<g>
		<path d="M350.616,9.216C347.96,3.584,342.328,0,336.12,0h-160c-6.208,0-11.872,3.584-14.496,9.216
			c-2.624,5.6-1.76,12.256,2.208,17.024l80,96c3.04,3.648,7.552,5.76,12.288,5.76c4.736,0,9.248-2.112,12.288-5.76l80-96
			C352.408,21.472,353.24,14.816,350.616,9.216z M256.12,87.008L210.264,32h91.712L256.12,87.008z"/>
	</g>
</g>
<g>
	<g>
		<path d="M270.936,106.08c-3.264-8.256-12.672-12.256-20.768-8.928l-58.048,23.232V16c0-8.832-7.168-16-16-16
			c-8.832,0-16,7.168-16,16v128c0,5.312,2.656,10.272,7.04,13.248c2.688,1.824,5.792,2.752,8.96,2.752
			c2.016,0,4.032-0.384,5.92-1.12l80-32C270.264,123.584,274.232,114.272,270.936,106.08z"/>
	</g>
</g>
<g>
	<g>
		<path d="M336.12,0c-8.832,0-16,7.168-16,16v104.384L262.04,97.12c-8.192-3.296-17.536,0.736-20.8,8.928
			c-3.264,8.192,0.736,17.504,8.928,20.8l80,32c1.92,0.768,3.968,1.152,5.952,1.152c3.168,0,6.272-0.928,8.96-2.752
			c4.416-2.976,7.04-7.936,7.04-13.248V16C352.12,7.168,344.952,0,336.12,0z"/>
	</g>
</g>
<g>
	<g>
		<path d="M256.12,96c-8.832,0-16,7.168-16,16v384.224c0,8.832,7.168,16,16,16c8.832,0,16-7.168,16-16V112
			C272.12,103.168,264.952,96,256.12,96z"/>
	</g>
</g>
<g>
</g>
<g>
</g>
<g>
</g>
<g>
</g>
<g>
</g>
<g>
</g>
<g>
</g>
<g>
</g>
<g>
</g>
<g>
</g>
<g>
</g>
<g>
</g>
<g>
</g>
<g>
</g>
<g>
</g>
</svg>
