<?xml version="1.0" encoding="iso-8859-1"?>
<!-- Generator: Adobe Illustrator 19.0.0, SVG Export Plug-In . SVG Version: 6.00 Build 0)  -->
<svg version="1.1" id="Capa_1" xmlns="http://www.w3.org/2000/svg" xmlns:xlink="http://www.w3.org/1999/xlink" x="0px" y="0px"
	 viewBox="0 0 512.995 512.995" style="enable-background:new 0 0 512.995 512.995;" xml:space="preserve">
<g>
	<g>
		<path d="M496,304.506H16c-8.832,0-16,7.168-16,16v48c0,17.664,14.368,32,32,32h448c17.664,0,32-14.336,32-32v-48
			C512,311.674,504.832,304.506,496,304.506z M480,368.506H32v-32h448V368.506z"/>
	</g>
</g>
<g>
	<g>
		<path d="M453.632,209.53c-5.12-1.952-10.816-1.12-15.2,2.176l-128,96c-7.072,5.312-8.512,15.328-3.232,22.4
			c3.136,4.192,7.968,6.4,12.8,6.4c3.328,0,6.72-1.024,9.6-3.2l120.48-90.304c37.408,20.512,30.464,72.896,30.112,75.232
			c-1.216,8.736,4.832,16.832,13.536,18.112c8.608,0.992,16.832-4.768,18.112-13.472C516.32,292.858,509.92,230.522,453.632,209.53z
			"/>
	</g>
</g>
<g>
	<g>
		<path d="M453.632,209.53l-256-96c-5.472-2.08-11.584-0.992-16,2.816c-50.112,42.688-83.232,32.256-123.584-0.288
			c-2.848-2.304-6.4-3.552-10.048-3.552H16c-8.832,0-16,7.168-16,16v192c0,8.832,7.168,16,16,16c8.832,0,16-7.168,16-16v-176h10.432
			c39.488,30.656,88.16,52.576,152.576,2.208l247.36,92.768c8.16,3.04,17.472-1.056,20.608-9.344
			C466.112,221.85,461.92,212.634,453.632,209.53z"/>
	</g>
</g>
<g>
	<g>
		<path d="M127.2,315.578c-23.072-71.2-39.488-80.032-105.344-105.952c-8.16-3.232-17.504,0.8-20.736,9.024s0.8,17.504,8.992,20.736
			c60.992,24,67.36,26.528,86.656,86.048c2.208,6.752,8.48,11.072,15.232,11.072c1.632,0,3.296-0.256,4.928-0.768
			C125.312,333.018,129.92,323.994,127.2,315.578z"/>
	</g>
</g>
<g>
	<g>
		<path d="M277.856,154.65c-6.24-6.24-16.384-6.24-22.624,0l-42.56,42.56c-6.24,6.24-6.24,16.384,0,22.624
			c3.136,3.104,7.232,4.672,11.328,4.672s8.192-1.568,11.296-4.672l42.56-42.56C284.096,171.034,284.096,160.89,277.856,154.65z"/>
	</g>
</g>
<g>
	<g>
		<path d="M331.296,181.21c-6.24-6.24-16.384-6.24-22.624,0l-32,32c-6.24,6.24-6.24,16.384,0,22.624
			c3.136,3.104,7.232,4.672,11.328,4.672s8.192-1.568,11.296-4.672l32-32C337.536,197.594,337.536,187.45,331.296,181.21z"/>
	</g>
</g>
<g>
</g>
<g>
</g>
<g>
</g>
<g>
</g>
<g>
</g>
<g>
</g>
<g>
</g>
<g>
</g>
<g>
</g>
<g>
</g>
<g>
</g>
<g>
</g>
<g>
</g>
<g>
</g>
<g>
</g>
</svg>
