<?xml version="1.0" encoding="iso-8859-1"?>
<!-- Generator: Adobe Illustrator 19.0.0, SVG Export Plug-In . SVG Version: 6.00 Build 0)  -->
<svg version="1.1" id="Capa_1" xmlns="http://www.w3.org/2000/svg" xmlns:xlink="http://www.w3.org/1999/xlink" x="0px" y="0px"
	 viewBox="0 0 512 512" style="enable-background:new 0 0 512 512;" xml:space="preserve">
<g>
	<g>
		<path d="M383.264,11.104C381.12,4.512,374.976,0,368,0H144c-6.944,0-13.12,4.512-15.264,11.104
			c-2.112,6.624,0.288,13.888,5.952,17.92l112,80c2.784,1.984,6.048,2.976,9.312,2.976c3.264,0,6.528-0.992,9.312-2.976l112-80
			C382.976,24.992,385.344,17.728,383.264,11.104z M256,76.352L193.92,32h124.128L256,76.352z"/>
	</g>
</g>
<g>
	<g>
		<path d="M267.328,84.672c-6.24-6.24-16.384-6.24-22.624,0l-66.656,66.656l-61.152-85.6l38.4-38.4c6.24-6.24,6.24-16.384,0-22.624
			s-16.384-6.24-22.624,0l-48,48c-5.536,5.536-6.24,14.24-1.696,20.608l80,112c2.752,3.808,7.008,6.24,11.712,6.656
			C175.136,192,175.552,192,176,192c4.224,0,8.288-1.664,11.328-4.704l80-80C273.568,101.056,273.568,90.912,267.328,84.672z"/>
	</g>
</g>
<g>
	<g>
		<path d="M427.296,52.704l-48-48c-6.24-6.24-16.384-6.24-22.624,0c-6.24,6.24-6.24,16.384,0,22.624l38.4,38.432l-61.12,85.6
			l-66.656-66.656c-6.24-6.24-16.384-6.24-22.624,0s-6.24,16.384,0,22.624l80,80C327.68,190.336,331.776,192,336,192
			c0.448,0,0.864,0,1.312-0.032c4.672-0.384,8.96-2.816,11.712-6.656l80-112C433.536,66.944,432.832,58.24,427.296,52.704z"/>
	</g>
</g>
<g>
	<g>
		<path d="M301.472,122.08c-8.704-2.208-17.248,3.072-19.392,11.648L275.52,160h-39.008l-6.592-26.272
			c-2.144-8.576-10.848-13.824-19.392-11.648c-8.576,2.144-13.792,10.816-11.648,19.392l9.6,38.4
			C210.24,187.008,216.672,192,224,192h64c7.328,0,13.76-4.992,15.52-12.128l9.6-38.4
			C315.264,132.896,310.048,124.224,301.472,122.08z"/>
	</g>
</g>
<g>
	<g>
		<path d="M319.968,447.072l-16-271.776c-0.512-8.448-7.488-15.072-15.968-15.072h-64c-8.48,0-15.456,6.592-16,15.072l-16,271.776
			c-0.256,4.576,1.44,9.024,4.672,12.256l48,48C247.808,510.432,251.904,512,256,512s8.192-1.568,11.296-4.672l48-48
			C318.528,456.096,320.256,451.648,319.968,447.072z M256,473.376l-31.616-31.584l14.688-249.568h33.824l14.688,249.568
			L256,473.376z"/>
	</g>
</g>
<g>
	<g>
		<path d="M501.92,81.12l-80-32c-8.16-3.328-17.472,0.704-20.768,8.928c-3.296,8.192,0.672,17.504,8.896,20.8L480,106.816V480H32
			V106.816l69.92-27.936c8.224-3.296,12.224-12.608,8.928-20.8c-3.296-8.256-12.64-12.256-20.8-8.928l-80,32C4,83.584,0,89.44,0,96
			v400c0,8.832,7.168,16,16,16h480c8.832,0,16-7.168,16-16V96C512,89.44,508.032,83.584,501.92,81.12z"/>
	</g>
</g>
<g>
</g>
<g>
</g>
<g>
</g>
<g>
</g>
<g>
</g>
<g>
</g>
<g>
</g>
<g>
</g>
<g>
</g>
<g>
</g>
<g>
</g>
<g>
</g>
<g>
</g>
<g>
</g>
<g>
</g>
</svg>
