<?xml version="1.0" encoding="iso-8859-1"?>
<!-- Generator: Adobe Illustrator 19.0.0, SVG Export Plug-In . SVG Version: 6.00 Build 0)  -->
<svg version="1.1" id="Capa_1" xmlns="http://www.w3.org/2000/svg" xmlns:xlink="http://www.w3.org/1999/xlink" x="0px" y="0px"
	 viewBox="0 0 512 512" style="enable-background:new 0 0 512 512;" xml:space="preserve">
<g>
	<g>
		<path d="M208.012,0h-192c-8.832,0-16,7.168-16,16v416c0,8.832,7.168,16,16,16h192c8.832,0,16-7.168,16-16V16
			C224.012,7.168,216.844,0,208.012,0z M192.012,416h-160V32h160V416z"/>
	</g>
</g>
<g>
	<g>
		<path d="M208.012,416c-8.832,0-16,7.168-16,16v64c0,8.832,7.168,16,16,16c8.832,0,16-7.168,16-16v-64
			C224.012,423.168,216.844,416,208.012,416z"/>
	</g>
</g>
<g>
	<g>
		<path d="M16.012,416c-8.832,0-16,7.168-16,16v64c0,8.832,7.168,16,16,16c8.832,0,16-7.168,16-16v-64
			C32.012,423.168,24.844,416,16.012,416z"/>
	</g>
</g>
<g>
	<g>
		<path d="M80.012,416c-8.832,0-16,7.168-16,16v64c0,8.832,7.168,16,16,16c8.832,0,16-7.168,16-16v-64
			C96.012,423.168,88.844,416,80.012,416z"/>
	</g>
</g>
<g>
	<g>
		<path d="M144.012,416c-8.832,0-16,7.168-16,16v64c0,8.832,7.168,16,16,16c8.832,0,16-7.168,16-16v-64
			C160.012,423.168,152.844,416,144.012,416z"/>
	</g>
</g>
<g>
	<g>
		<path d="M158.348,328.864l-32-64c-5.44-10.816-23.2-10.816-28.64,0l-32,64c-2.24,4.48-2.24,9.792,0,14.304l32,64
			c2.72,5.408,8.256,8.832,14.304,8.832s11.584-3.424,14.336-8.832l32-64C160.588,338.688,160.588,333.376,158.348,328.864z
			 M112.012,364.224L97.9,336l14.112-28.224L126.124,336L112.012,364.224z"/>
	</g>
</g>
<g>
	<g>
		<path d="M158.348,200.864l-32-64c-5.44-10.848-23.2-10.848-28.64,0l-32,64c-2.24,4.48-2.24,9.792,0,14.304l32,64
			c2.72,5.408,8.256,8.832,14.304,8.832s11.584-3.424,14.336-8.832l32-64C160.588,210.688,160.588,205.376,158.348,200.864z
			 M112.012,236.224L97.9,208l14.112-28.224L126.124,208L112.012,236.224z"/>
	</g>
</g>
<g>
	<g>
		<path d="M462.22,303.584L283.34,124.992c-6.272-6.24-16.384-6.272-22.656,0.032c-6.24,6.24-6.24,16.384,0,22.624L428.236,314.88
			L314.86,428.256l-31.552-31.552c-6.24-6.24-16.384-6.24-22.624,0s-6.24,16.384,0,22.624l42.88,42.88
			c3.136,3.104,7.232,4.672,11.328,4.672s8.192-1.568,11.328-4.672l136-136c2.976-3.008,4.672-7.072,4.672-11.328
			C466.892,310.624,465.196,306.56,462.22,303.584z"/>
	</g>
</g>
<g>
	<g>
		<path d="M507.308,348.928L462.06,303.68c-6.24-6.24-16.384-6.24-22.624,0s-6.24,16.384,0,22.624l45.248,45.248
			c3.136,3.104,7.232,4.672,11.328,4.672s8.192-1.568,11.296-4.672C513.548,365.312,513.548,355.168,507.308,348.928z"/>
	</g>
</g>
<g>
	<g>
		<path d="M462.06,394.208l-45.248-45.248c-6.24-6.24-16.384-6.24-22.624,0s-6.24,16.384,0,22.624l45.248,45.248
			c3.136,3.104,7.232,4.672,11.328,4.672s8.192-1.568,11.296-4.672C468.3,410.592,468.3,400.448,462.06,394.208z"/>
	</g>
</g>
<g>
	<g>
		<path d="M416.812,439.456l-45.248-45.248c-6.24-6.24-16.384-6.24-22.624,0s-6.24,16.384,0,22.624l45.248,45.248
			c3.136,3.104,7.232,4.672,11.328,4.672s8.192-1.568,11.296-4.672C423.052,455.84,423.052,445.696,416.812,439.456z"/>
	</g>
</g>
<g>
	<g>
		<path d="M371.532,484.704l-45.248-45.248c-6.24-6.24-16.384-6.24-22.624,0s-6.24,16.384,0,22.624l45.248,45.248
			c3.136,3.104,7.232,4.672,11.328,4.672s8.192-1.568,11.296-4.672C377.772,501.088,377.772,490.944,371.532,484.704z"/>
	</g>
</g>
<g>
	<g>
		<path d="M375.436,355.2l-22.624-67.904c-1.568-4.768-5.344-8.512-10.112-10.112l-67.904-22.624
			c-5.76-1.952-12.064-0.416-16.352,3.84c-4.288,4.288-5.792,10.624-3.872,16.384l22.624,67.936
			c1.568,4.768,5.344,8.512,10.112,10.112l67.904,22.624c1.664,0.512,3.36,0.8,5.056,0.8c4.192,0,8.256-1.632,11.296-4.672
			C375.852,367.296,377.356,360.96,375.436,355.2z M305.004,324.96l-9.984-29.952l29.984,9.952l9.984,29.984L305.004,324.96z"/>
	</g>
</g>
<g>
	<g>
		<path d="M158.348,72.864l-32-64c-5.44-10.848-23.2-10.848-28.64,0l-32,64c-2.24,4.48-2.24,9.792,0,14.304l32,64
			c2.72,5.408,8.256,8.832,14.304,8.832s11.584-3.424,14.336-8.832l32-64C160.588,82.688,160.588,77.376,158.348,72.864z
			 M112.012,108.224L97.9,80l14.112-28.224L126.124,80L112.012,108.224z"/>
	</g>
</g>
<g>
</g>
<g>
</g>
<g>
</g>
<g>
</g>
<g>
</g>
<g>
</g>
<g>
</g>
<g>
</g>
<g>
</g>
<g>
</g>
<g>
</g>
<g>
</g>
<g>
</g>
<g>
</g>
<g>
</g>
</svg>
