<?xml version="1.0" encoding="iso-8859-1"?>
<!-- Generator: Adobe Illustrator 19.0.0, SVG Export Plug-In . SVG Version: 6.00 Build 0)  -->
<svg version="1.1" id="Capa_1" xmlns="http://www.w3.org/2000/svg" xmlns:xlink="http://www.w3.org/1999/xlink" x="0px" y="0px"
	 viewBox="0 0 512 512" style="enable-background:new 0 0 512 512;" xml:space="preserve">
<g>
	<g>
		<path d="M401.792,318.72c-0.064,0-0.128,0-0.192,0c-8.736,0-15.904,7.04-16,15.808c-0.096,8.864,6.976,16.096,15.808,16.192
			C469.792,351.488,480,361.888,480,368c0,26.08-87.264,64-224,64S32,394.08,32,368c0-6.112,10.208-16.512,78.592-17.28
			c8.832-0.096,15.904-7.36,15.808-16.192c-0.096-8.832-7.744-17.024-16.192-15.808C71.712,319.168,0,319.968,0,368
			c0,63.04,128.768,96,256,96s256-32.96,256-96C512,319.968,440.32,319.168,401.792,318.72z"/>
	</g>
</g>
<g>
	<g>
		<path d="M427.584,52.992C424.608,49.792,420.384,48,416,48H96c-4.384,0-8.608,1.824-11.616,4.992
			c-3.008,3.168-4.576,7.456-4.384,11.84l16,304c0.384,7.04,5.312,13.024,12.16,14.688C151.648,394.304,202.784,400,256,400
			s104.352-5.696,147.84-16.448c6.848-1.696,11.744-7.648,12.128-14.688l16-304C432.224,60.448,430.624,56.192,427.584,52.992z
			 M384.64,355.168c-76.928,16.8-180.416,16.8-257.312,0L112.864,80h286.272L384.64,355.168z"/>
	</g>
</g>
<g>
</g>
<g>
</g>
<g>
</g>
<g>
</g>
<g>
</g>
<g>
</g>
<g>
</g>
<g>
</g>
<g>
</g>
<g>
</g>
<g>
</g>
<g>
</g>
<g>
</g>
<g>
</g>
<g>
</g>
</svg>
