<?xml version="1.0" encoding="iso-8859-1"?>
<!-- Generator: Adobe Illustrator 19.0.0, SVG Export Plug-In . SVG Version: 6.00 Build 0)  -->
<svg version="1.1" id="Capa_1" xmlns="http://www.w3.org/2000/svg" xmlns:xlink="http://www.w3.org/1999/xlink" x="0px" y="0px"
	 viewBox="0 0 512 512" style="enable-background:new 0 0 512 512;" xml:space="preserve">
<g>
	<g>
		<path d="M352,0H160c-8.832,0-16,7.168-16,16v64c0,8.832,7.168,16,16,16h192c8.832,0,16-7.168,16-16V16C368,7.168,360.832,0,352,0z
			 M336,64H176V32h160V64z"/>
	</g>
</g>
<g>
	<g>
		<path d="M256,480h-69.376C172.8,446.24,128,328.608,128,224c0-82.816,57.536-131.136,58.144-131.616
			c6.816-5.6,7.84-15.68,2.24-22.496c-5.6-6.816-15.616-7.904-22.464-2.304C163.072,69.92,96,125.504,96,224
			c0,129.92,62.688,272.512,65.376,278.496C163.968,508.288,169.664,512,176,512h80c8.832,0,16-7.168,16-16
			C272,487.168,264.832,480,256,480z"/>
	</g>
</g>
<g>
	<g>
		<path d="M346.112,67.584c-6.88-5.568-16.832-4.512-22.464,2.304c-5.568,6.816-4.576,16.896,2.24,22.496
			C326.464,92.864,384,141.184,384,224c0,104.608-44.8,222.24-58.624,256H256c-8.832,0-16,7.168-16,16c0,8.832,7.168,16,16,16h80
			c6.304,0,12.064-3.712,14.624-9.504C353.28,496.512,416,353.92,416,224C416,125.504,348.928,69.92,346.112,67.584z"/>
	</g>
</g>
<g>
	<g>
		<path d="M208,64c-8.832,0-16,7.168-16,16v80c0,8.832,7.168,16,16,16c8.832,0,16-7.168,16-16V80C224,71.168,216.832,64,208,64z"/>
	</g>
</g>
<g>
	<g>
		<path d="M304,64c-8.832,0-16,7.168-16,16v80c0,8.832,7.168,16,16,16c8.832,0,16-7.168,16-16V80C320,71.168,312.832,64,304,64z"/>
	</g>
</g>
<g>
</g>
<g>
</g>
<g>
</g>
<g>
</g>
<g>
</g>
<g>
</g>
<g>
</g>
<g>
</g>
<g>
</g>
<g>
</g>
<g>
</g>
<g>
</g>
<g>
</g>
<g>
</g>
<g>
</g>
</svg>
