<?xml version="1.0" encoding="iso-8859-1"?>
<!-- Generator: Adobe Illustrator 19.0.0, SVG Export Plug-In . SVG Version: 6.00 Build 0)  -->
<svg version="1.1" id="Capa_1" xmlns="http://www.w3.org/2000/svg" xmlns:xlink="http://www.w3.org/1999/xlink" x="0px" y="0px"
	 viewBox="0 0 511.986 511.986" style="enable-background:new 0 0 511.986 511.986;" xml:space="preserve">
<g>
	<g>
		<path d="M116.376,320.497c-8.416-2.496-17.344,2.464-19.776,10.976L67.928,431.889h-33.6L79.864,98.065
			c1.184-8.736-4.928-16.8-13.696-18.016s-16.832,4.928-18.016,13.696l-48,352c-0.64,4.544,0.768,9.184,3.808,12.672
			c3.008,3.488,7.392,5.472,12.032,5.472h64c7.136,0,13.408-4.736,15.392-11.616l32-112
			C129.784,331.793,124.888,322.897,116.376,320.497z"/>
	</g>
</g>
<g>
	<g>
		<path d="M511.832,445.713l-48-352c-1.184-8.768-9.472-14.944-17.984-13.696c-8.768,1.216-14.912,9.28-13.696,18.016
			l45.504,333.856h-33.6l-28.672-100.384c-2.4-8.512-11.168-13.6-19.776-10.976c-8.512,2.4-13.408,11.264-10.976,19.776l32,112
			c1.952,6.848,8.192,11.584,15.36,11.584h64c4.64,0,8.992-1.984,12.064-5.504C511.096,454.897,512.472,450.289,511.832,445.713z"/>
	</g>
</g>
<g>
	<g>
		<path d="M462.264,88.689c-2.016-4-5.6-6.944-9.888-8.192l-100.8-28.8c-8.64-2.432-17.376,2.528-19.776,11.008
			c-2.432,8.48,2.464,17.344,10.976,19.776l84.16,24.032l-41.92,111.744c-0.672,1.792-1.024,3.712-1.024,5.632v240h-256v-240
			c0-1.92-0.352-3.84-0.992-5.632L85.08,106.513l84.096-24.032c8.512-2.432,13.44-11.296,11.008-19.776
			c-2.432-8.512-11.328-13.28-19.776-11.008l-100.8,28.8c-4.288,1.248-7.904,4.192-9.888,8.192
			c-2.016,3.968-2.272,8.64-0.704,12.832l46.976,125.28v253.088c0,8.832,7.168,16,16,16h288c8.832,0,16-7.168,16-16V226.801
			l46.944-125.28C464.536,97.329,464.28,92.689,462.264,88.689z"/>
	</g>
</g>
<g>
	<g>
		<path d="M350.776,25.777c-2.464-5.984-8.32-9.888-14.784-9.888h-160c-6.464,0-12.32,3.904-14.784,9.888
			c-2.496,5.984-1.12,12.832,3.456,17.44l80,80c3.136,3.104,7.232,4.672,11.328,4.672s8.192-1.568,11.328-4.672l80-80
			C351.864,38.641,353.24,31.761,350.776,25.777z M255.992,89.265l-41.376-41.376h82.752L255.992,89.265z"/>
	</g>
</g>
<g>
	<g>
		<path d="M271.832,109.617c-1.248-8.768-9.536-14.848-18.112-13.568l-86.368,12.352l23.808-71.456
			c2.784-8.384-1.728-17.44-10.112-20.224c-8.416-2.816-17.44,1.728-20.224,10.08l-32,96c-1.792,5.28-0.672,11.072,2.88,15.328
			c3.072,3.68,7.584,5.76,12.288,5.76c0.736,0,1.504-0.032,2.24-0.16l112-16C267,126.481,273.08,118.385,271.832,109.617z"/>
	</g>
</g>
<g>
	<g>
		<path d="M367.768,125.265l-16-96c-1.472-8.704-9.856-14.688-18.4-13.152c-8.704,1.44-14.624,9.696-13.152,18.4l12.32,73.92
			l-73.92-12.32c-8.704-1.568-16.96,4.448-18.4,13.152c-1.472,8.704,4.448,16.96,13.152,18.4l96,16
			c0.864,0.16,1.76,0.224,2.624,0.224c4.224,0,8.288-1.664,11.296-4.672C366.968,135.537,368.6,130.353,367.768,125.265z"/>
	</g>
</g>
<g>
	<g>
		<path d="M255.992,95.889c-8.832,0-16,7.168-16,16v368.224c0,8.832,7.168,16,16,16c8.832,0,16-7.168,16-16V111.889
			C271.992,103.057,264.824,95.889,255.992,95.889z"/>
	</g>
</g>
<g>
</g>
<g>
</g>
<g>
</g>
<g>
</g>
<g>
</g>
<g>
</g>
<g>
</g>
<g>
</g>
<g>
</g>
<g>
</g>
<g>
</g>
<g>
</g>
<g>
</g>
<g>
</g>
<g>
</g>
</svg>
