<?xml version="1.0" encoding="iso-8859-1"?>
<!-- Generator: Adobe Illustrator 19.0.0, SVG Export Plug-In . SVG Version: 6.00 Build 0)  -->
<svg version="1.1" id="Capa_1" xmlns="http://www.w3.org/2000/svg" xmlns:xlink="http://www.w3.org/1999/xlink" x="0px" y="0px"
	 viewBox="0 0 512 512" style="enable-background:new 0 0 512 512;" xml:space="preserve">
<g>
	<g>
		<path d="M271.776,301.376l-48-288C222.496,5.664,215.84,0,208,0h-32c-4.256,0-8.32,1.696-11.328,4.704l-32,32
			c-6.24,6.24-6.24,16.384,0,22.624L153.376,80l-20.704,20.672c-5.12,5.152-6.144,13.12-2.496,19.392l112,192
			C245.12,317.088,250.432,320,256,320c1.824,0,3.648-0.32,5.44-0.928C268.672,316.448,273.056,308.992,271.776,301.376z
			 M164.032,114.592l23.264-23.296c6.24-6.24,6.24-16.384,0-22.624L166.624,48l16-16h11.84l31.424,188.608L164.032,114.592z"/>
	</g>
</g>
<g>
	<g>
		<path d="M358.624,80l20.704-20.704c6.24-6.24,6.24-16.384,0-22.624l-32-32C344.32,1.696,340.256,0,336,0h-32
			c-7.808,0-14.496,5.664-15.776,13.376l-48,288c-1.28,7.616,3.072,15.072,10.336,17.696c1.792,0.608,3.616,0.928,5.44,0.928
			c5.568,0,10.88-2.912,13.792-7.968l112-192c3.648-6.272,2.624-14.208-2.496-19.36L358.624,80z M286.112,220.608L317.568,32h11.808
			l16,16l-20.704,20.672c-6.24,6.24-6.24,16.384,0,22.624l23.296,23.296L286.112,220.608z"/>
	</g>
</g>
<g>
	<g>
		<path d="M159.776,45.376c-1.44-8.736-9.728-14.752-18.4-13.152l-42.528,7.072C60.096,45.76,32,78.944,32,118.208V432
			c0,7.328,4.992,13.76,12.096,15.52l64,16c1.312,0.32,2.624,0.48,3.904,0.48c7.2,0,13.696-4.832,15.52-12.128
			c2.144-8.544-3.072-17.248-11.648-19.392L64,419.52V118.208c0-23.552,16.864-43.488,40.096-47.36l42.528-7.072
			C155.328,62.336,161.216,54.08,159.776,45.376z"/>
	</g>
</g>
<g>
	<g>
		<path d="M413.152,39.328l-42.528-7.072c-8.608-1.536-16.928,4.448-18.4,13.152c-1.44,8.704,4.448,16.96,13.152,18.4l42.528,7.072
			C431.136,74.752,448,94.656,448,118.208v301.28l-51.872,12.992c-8.576,2.144-13.76,10.816-11.648,19.392
			C386.272,459.168,392.8,464,400,464c1.28,0,2.592-0.16,3.872-0.48l64-16C475.008,445.76,480,439.328,480,432V118.208
			C480,78.944,451.872,45.76,413.152,39.328z"/>
	</g>
</g>
<g>
	<g>
		<path d="M400,192c-8.832,0-16,7.168-16,16v272h-86.112l-27.552-55.168c-5.44-10.816-23.2-10.816-28.64,0L214.112,480H128V176
			c0-8.832-7.168-16-16-16c-8.832,0-16,7.168-16,16v320c0,8.832,7.168,16,16,16h112c6.048,0,11.584-3.424,14.304-8.864L256,467.776
			l17.696,35.392c2.72,5.408,8.256,8.832,14.304,8.832h112c8.832,0,16-7.168,16-16V208C416,199.168,408.832,192,400,192z"/>
	</g>
</g>
<g>
	<g>
		<path d="M304,0h-96c-8.832,0-16,7.168-16,16c0,8.832,7.168,16,16,16h96c8.832,0,16-7.168,16-16S312.832,0,304,0z"/>
	</g>
</g>
<g>
	<g>
		<path d="M256,288c-8.832,0-16,7.168-16,16v128c0,8.832,7.168,16,16,16c8.832,0,16-7.168,16-16V304
			C272,295.168,264.832,288,256,288z"/>
	</g>
</g>
<g>
</g>
<g>
</g>
<g>
</g>
<g>
</g>
<g>
</g>
<g>
</g>
<g>
</g>
<g>
</g>
<g>
</g>
<g>
</g>
<g>
</g>
<g>
</g>
<g>
</g>
<g>
</g>
<g>
</g>
</svg>
