<?xml version="1.0" encoding="iso-8859-1"?>
<!-- Generator: Adobe Illustrator 19.0.0, SVG Export Plug-In . SVG Version: 6.00 Build 0)  -->
<svg version="1.1" id="Capa_1" xmlns="http://www.w3.org/2000/svg" xmlns:xlink="http://www.w3.org/1999/xlink" x="0px" y="0px"
	 viewBox="0 0 512.014 512.014" style="enable-background:new 0 0 512.014 512.014;" xml:space="preserve">
<g>
	<g>
		<path d="M255.991,0.007c-45.6,0-80,20.64-80,48s34.4,48,80,48c45.6,0,80-20.64,80-48S301.591,0.007,255.991,0.007z
			 M255.991,64.007c-30.976,0-48-12-48-16s17.024-16,48-16s48,12,48,16S286.967,64.007,255.991,64.007z"/>
	</g>
</g>
<g>
	<g>
		<path d="M319.991,80.007c-8.832,0-16,7.168-16,16c0,4-17.024,16-48,16s-48-12-48-16c0-8.832-7.168-16-16-16
			c-8.832,0-16,7.168-16,16c0,27.36,34.4,48,80,48c45.6,0,80-20.64,80-48C335.991,87.175,328.823,80.007,319.991,80.007z"/>
	</g>
</g>
<g>
	<g>
		<path d="M319.991,32.007c-8.832,0-16,7.168-16,16v48c0,8.832,7.168,16,16,16c8.832,0,16-7.168,16-16v-48
			C335.991,39.175,328.823,32.007,319.991,32.007z"/>
	</g>
</g>
<g>
	<g>
		<path d="M511.799,461.383l-55.04-330.592c-6.464-38.688-39.616-66.784-78.848-66.784h-57.92c-8.832,0-16,7.168-16,16
			c0,8.832,7.168,16,16,16h57.92c23.136,0,43.456,17.216,47.296,40.064l51.936,311.936h-32.64l-60.992-243.872
			c-1.984-7.84-8.832-13.12-17.504-12c-8,0.992-14.016,7.808-14.016,15.872v272h-192v-272c0-8.064-6.016-14.88-14.048-15.872
			c-8-1.088-15.52,4.16-17.472,12L67.479,448.007H34.871l51.936-311.936c3.808-22.848,24.128-40.064,47.264-40.064h57.92
			c8.832,0,16-7.168,16-16c0-8.832-7.168-16-16-16h-57.92c-38.592,0-72.48,28.704-78.816,66.816l-55.04,330.56
			c-0.768,4.608,0.544,9.376,3.584,12.96c3.008,3.616,7.488,5.664,12.192,5.664h64c7.328,0,13.728-4.992,15.52-12.096l32.48-129.92
			v158.016c0,8.832,7.168,16,16,16h224c8.832,0,16-7.168,16-16V337.991l32.48,129.888c1.76,7.136,8.192,12.128,15.52,12.128h64
			c4.672,0,9.152-2.048,12.256-5.664C511.255,470.759,512.567,466.023,511.799,461.383z"/>
	</g>
</g>
<g>
	<g>
		<path d="M191.991,32.007c-8.832,0-16,7.168-16,16v48c0,8.832,7.168,16,16,16c8.832,0,16-7.168,16-16v-48
			C207.991,39.175,200.823,32.007,191.991,32.007z"/>
	</g>
</g>
<g>
</g>
<g>
</g>
<g>
</g>
<g>
</g>
<g>
</g>
<g>
</g>
<g>
</g>
<g>
</g>
<g>
</g>
<g>
</g>
<g>
</g>
<g>
</g>
<g>
</g>
<g>
</g>
<g>
</g>
</svg>
