<?xml version="1.0" encoding="iso-8859-1"?>
<!-- Generator: Adobe Illustrator 19.0.0, SVG Export Plug-In . SVG Version: 6.00 Build 0)  -->
<svg version="1.1" id="Capa_1" xmlns="http://www.w3.org/2000/svg" xmlns:xlink="http://www.w3.org/1999/xlink" x="0px" y="0px"
	 viewBox="0 0 480 480" style="enable-background:new 0 0 480 480;" xml:space="preserve">
<g>
	<g>
		<path d="M400,336c0-28.896,7.232-46.976,14.848-66.048C423.296,248.864,432,227.104,432,192c0-60.512-49.792-88.928-76.128-95.52
			c-4.32-1.12-8.96-0.32-12.736,2.208C342.688,98.976,298.464,128,240,128c-58.048,0-102.688-29.056-103.168-29.344
			c-3.712-2.464-8.352-3.328-12.704-2.176C97.792,103.072,48,131.488,48,192c0,35.104,8.704,56.864,17.152,77.952
			C72.768,289.024,80,307.104,80,336c0,59.328-30.016,120.256-30.304,120.864c-2.496,4.96-2.208,10.88,0.704,15.552
			C53.312,477.12,58.464,480,64,480h352c5.536,0,10.688-2.88,13.6-7.616c2.912-4.672,3.168-10.592,0.704-15.552
			C430.016,456.256,400,395.328,400,336z M88.352,448C98.304,422.592,112,379.616,112,336c0-35.104-8.704-56.864-17.152-77.952
			C87.232,238.976,80,220.928,80,192c0-40.608,32.352-57.312,46.016-62.528C142.272,138.72,185.568,160,240,160
			c54.4,0,97.728-21.28,113.984-30.528C367.68,134.72,400,151.424,400,192c0,28.928-7.232,46.976-14.848,66.048
			C376.704,279.136,368,300.896,368,336c0,43.616,13.696,86.592,23.648,112H88.352z"/>
	</g>
</g>
<g>
	<g>
		<path d="M128,0c-8.832,0-16,7.168-16,16v96c0,8.832,7.168,16,16,16c8.832,0,16-7.168,16-16V16C144,7.168,136.832,0,128,0z"/>
	</g>
</g>
<g>
	<g>
		<path d="M352,0c-8.832,0-16,7.168-16,16v96c0,8.832,7.168,16,16,16c8.832,0,16-7.168,16-16V16C368,7.168,360.832,0,352,0z"/>
	</g>
</g>
<g>
</g>
<g>
</g>
<g>
</g>
<g>
</g>
<g>
</g>
<g>
</g>
<g>
</g>
<g>
</g>
<g>
</g>
<g>
</g>
<g>
</g>
<g>
</g>
<g>
</g>
<g>
</g>
<g>
</g>
</svg>
