<?xml version="1.0" encoding="iso-8859-1"?>
<!-- Generator: Adobe Illustrator 19.0.0, SVG Export Plug-In . SVG Version: 6.00 Build 0)  -->
<svg version="1.1" id="Capa_1" xmlns="http://www.w3.org/2000/svg" xmlns:xlink="http://www.w3.org/1999/xlink" x="0px" y="0px"
	 viewBox="0 0 512 512" style="enable-background:new 0 0 512 512;" xml:space="preserve">
<g>
	<g>
		<path d="M413.44,407.328c-0.576-0.96-59.52-92.736-59.52-151.328c0-28.64,10.656-44.672,21.952-61.632
			C387.2,177.408,400,158.176,400,128c0-27.872-8-46.08-16-57.344V16c0-8.832-7.168-16-16-16c-8.832,0-16,7.168-16,16v60.16
			c0,3.84,1.376,7.552,3.872,10.464C361.408,93.024,368,105.408,368,128c0,20.48-8.288,32.896-18.752,48.64
			c-12.8,19.232-27.328,41.024-27.328,79.36c0,54.048,39.264,126.336,56.64,155.648L282.88,480h-53.76l-95.68-68.352
			c17.344-29.312,56.64-101.6,56.64-155.648c0-38.336-14.528-60.128-27.328-79.36C152.288,160.896,144,148.48,144,128
			c0-22.592,6.592-34.976,12.128-41.376C158.624,83.712,160,80,160,76.16V16c0-8.832-7.168-16-16-16c-8.832,0-16,7.168-16,16v54.656
			c-8,11.264-16,29.472-16,57.344c0,30.176,12.8,49.408,24.096,66.368c11.328,16.96,21.984,32.992,21.984,61.632
			c0,58.496-58.912,150.4-59.52,151.296c-4.64,7.2-2.816,16.768,4.128,21.728l112,80c2.72,1.952,5.984,2.976,9.312,2.976h64
			c3.328,0,6.592-1.024,9.312-2.944l112-80C416.256,424.064,418.08,414.528,413.44,407.328z"/>
	</g>
</g>
<g>
	<g>
		<path d="M381.696,67.872c-4.576-7.52-14.464-9.856-21.984-5.376L256,125.312L152.288,62.496
			c-7.584-4.576-17.376-2.144-21.984,5.376c-4.576,7.552-2.144,17.408,5.408,21.984l112,67.84c2.56,1.536,5.408,2.304,8.288,2.304
			c2.88,0,5.76-0.768,8.288-2.304l112-67.84C383.84,85.28,386.272,75.424,381.696,67.872z"/>
	</g>
</g>
<g>
</g>
<g>
</g>
<g>
</g>
<g>
</g>
<g>
</g>
<g>
</g>
<g>
</g>
<g>
</g>
<g>
</g>
<g>
</g>
<g>
</g>
<g>
</g>
<g>
</g>
<g>
</g>
<g>
</g>
</svg>
