<?xml version="1.0" encoding="iso-8859-1"?>
<!-- Generator: Adobe Illustrator 19.0.0, SVG Export Plug-In . SVG Version: 6.00 Build 0)  -->
<svg version="1.1" id="Capa_1" xmlns="http://www.w3.org/2000/svg" xmlns:xlink="http://www.w3.org/1999/xlink" x="0px" y="0px"
	 viewBox="0 0 512.008 512.008" style="enable-background:new 0 0 512.008 512.008;" xml:space="preserve">
<g>
	<g>
		<path d="M269.316,87.144c-4.896-7.392-14.848-9.344-22.176-4.448l-35.808,23.872l-45.888-57.376L187.3,27.304
			c6.24-6.24,6.24-16.384,0-22.624s-16.384-6.24-22.624,0l-32,32c-5.76,5.792-6.272,14.944-1.184,21.312l64,80
			c3.168,3.936,7.808,6.016,12.512,6.016c3.072,0,6.144-0.864,8.864-2.688l48-32C272.228,104.424,274.212,94.504,269.316,87.144z"/>
	</g>
</g>
<g>
	<g>
		<path d="M379.332,36.712l-32-32c-6.24-6.24-16.384-6.24-22.624,0s-6.24,16.384,0,22.624l21.888,21.888l-45.92,57.344
			l-35.808-23.872c-7.264-4.864-17.28-2.912-22.176,4.448s-2.912,17.28,4.448,22.176l48,32c2.72,1.824,5.792,2.688,8.864,2.688
			c4.672,0,9.344-2.08,12.512-5.984l64-80C385.604,51.656,385.124,42.472,379.332,36.712z"/>
	</g>
</g>
<g>
	<g>
		<path d="M350.788,9.896c-2.464-5.984-8.32-9.888-14.784-9.888h-160c-6.464,0-12.32,3.904-14.784,9.888
			c-2.496,5.984-1.12,12.832,3.456,17.44l80,80c3.136,3.104,7.232,4.672,11.328,4.672s8.192-1.568,11.328-4.672l80-80
			C351.876,22.76,353.252,15.88,350.788,9.896z M256.004,73.384l-41.376-41.376h82.752L256.004,73.384z"/>
	</g>
</g>
<g>
	<g>
		<path d="M271.14,378.952l-112-336c-1.952-5.92-7.2-10.176-13.408-10.848c-6.4-0.736-12.256,2.336-15.456,7.68l-48,80
			c-4.384,7.328-2.272,16.8,4.864,21.536l34.688,23.104l-23.136,34.688c-3.904,5.856-3.52,13.568,0.928,19.008l144,176
			c3.136,3.872,7.712,5.888,12.384,5.888c2.624,0,5.28-0.672,7.68-1.984C270.436,394.28,273.572,386.28,271.14,378.952z
			 M131.876,207.048l25.472-38.176c4.896-7.36,2.912-17.28-4.448-22.176l-35.328-23.52l22.272-37.12l73.472,220.512L131.876,207.048
			z"/>
	</g>
</g>
<g>
	<g>
		<path d="M429.732,119.784l-48-80c-3.168-5.344-8.832-8.224-15.456-7.68c-6.208,0.704-11.456,4.928-13.44,10.848l-112,336
			c-2.464,7.328,0.704,15.36,7.456,19.072c2.432,1.312,5.088,1.984,7.712,1.984c4.672,0,9.248-2.016,12.416-5.856l144-176
			c4.448-5.44,4.832-13.152,0.928-19.008l-23.136-34.688L424.9,141.32C431.972,136.584,434.148,127.112,429.732,119.784z
			 M359.14,146.728c-7.36,4.896-9.344,14.816-4.448,22.176l25.44,38.144l-81.44,99.52l73.504-220.512l22.272,37.152L359.14,146.728z
			"/>
	</g>
</g>
<g>
	<g>
		<path d="M313.092,257.736l-25.28-164.16c-1.184-7.808-7.904-13.568-15.808-13.568h-32c-7.904,0-14.624,5.76-15.808,13.568
			l-25.28,164.16c-1.344,8.736,4.64,16.896,13.376,18.24c8.768,1.344,16.896-4.672,18.24-13.376l23.2-150.592h4.544l23.2,150.592
			c1.216,7.904,8.032,13.568,15.776,13.568c0.8,0,1.664-0.064,2.464-0.192C308.42,274.632,314.436,266.472,313.092,257.736z"/>
	</g>
</g>
<g>
	<g>
		<path d="M501.636,81.064l-128-48c-8.192-3.104-17.504,1.056-20.608,9.344c-3.136,8.288,1.056,17.504,9.344,20.608l117.632,44.096
			v372.896h-448V107.112l117.632-44.128c8.256-3.104,12.448-12.32,9.344-20.608c-3.104-8.288-12.352-12.416-20.608-9.344l-128,48
			c-6.24,2.336-10.368,8.32-10.368,14.976v384c0,17.664,14.368,32,32,32h448c17.664,0,32-14.336,32-32v-384
			C512.004,89.352,507.876,83.368,501.636,81.064z"/>
	</g>
</g>
<g>
	<g>
		<path d="M256.644,416.008h-0.32c-8.832,0-15.808,7.168-15.808,16c0,8.832,7.296,16,16.128,16s16-7.168,16-16
			C272.644,423.176,265.476,416.008,256.644,416.008z"/>
	</g>
</g>
<g>
</g>
<g>
</g>
<g>
</g>
<g>
</g>
<g>
</g>
<g>
</g>
<g>
</g>
<g>
</g>
<g>
</g>
<g>
</g>
<g>
</g>
<g>
</g>
<g>
</g>
<g>
</g>
<g>
</g>
</svg>
