<?xml version="1.0" encoding="iso-8859-1"?>
<!-- Generator: Adobe Illustrator 19.0.0, SVG Export Plug-In . SVG Version: 6.00 Build 0)  -->
<svg version="1.1" id="Capa_1" xmlns="http://www.w3.org/2000/svg" xmlns:xlink="http://www.w3.org/1999/xlink" x="0px" y="0px"
	 viewBox="0 0 512 512" style="enable-background:new 0 0 512 512;" xml:space="preserve">
<g>
	<g>
		<path d="M411.305,36.672l-32-32C376.297,1.696,372.233,0,367.977,0h-32c-6.88,0-12.992,4.416-15.2,10.944
			C320.649,11.328,307.849,48,255.977,48c-51.008,0-64.32-35.68-64.832-37.056C188.969,4.416,182.857,0,175.977,0h-32
			c-4.256,0-8.32,1.696-11.328,4.672l-32,32c-4.992,5.024-6.112,12.672-2.784,18.88c0.192,0.352,18.528,34.976,14.208,70.496
			c-5.792,47.936,34.56,91.136,36.288,92.96c3.008,3.168,7.232,4.992,11.616,4.992h192c4.416,0,8.608-1.792,11.648-4.992
			c1.728-1.824,42.112-45.056,36.256-92.96c-4.288-35.232,14.016-70.176,14.208-70.528
			C417.385,49.344,416.265,41.632,411.305,36.672z M368.073,129.952c3.104,25.376-14.976,51.392-23.488,62.048H167.369
			c-8.48-10.688-26.592-36.832-23.488-62.048c3.904-32.224-6.144-62.752-12.704-78.528L150.601,32h15.328
			c9.664,17.088,34.816,48,90.048,48s80.384-30.912,90.048-48h15.328l19.424,19.424C374.217,67.2,364.169,97.76,368.073,129.952z"/>
	</g>
</g>
<g>
	<g>
		<path d="M462.985,458.368l-96-256c-3.104-8.256-12.384-12.416-20.608-9.344c-8.288,3.104-12.48,12.32-9.344,20.608l89.984,240
			C396.265,462.368,325.641,480,255.977,480s-140.288-17.632-171.008-26.368l89.984-240c3.104-8.288-1.088-17.504-9.344-20.608
			c-8.32-3.104-17.504,1.056-20.608,9.344l-96,256c-1.504,4.064-1.344,8.608,0.544,12.512c1.888,3.936,5.248,6.944,9.376,8.32
			c4,1.344,99.584,32.8,197.056,32.8s193.024-31.456,197.088-32.8c4.128-1.376,7.488-4.384,9.376-8.32
			C464.329,466.976,464.521,462.432,462.985,458.368z"/>
	</g>
</g>
<g>
	<g>
		<path d="M227.113,192.32c-8.768-1.888-17.12,3.872-18.816,12.544l-16,80c-1.728,8.672,3.872,17.12,12.512,18.816
			c1.088,0.224,2.144,0.32,3.168,0.32c7.488,0,14.176-5.248,15.68-12.864l16-80C241.385,202.464,235.785,194.048,227.113,192.32z"/>
	</g>
</g>
<g>
	<g>
		<path d="M319.657,284.864l-16-80c-1.728-8.704-10.56-14.368-18.816-12.544c-8.672,1.728-14.304,10.144-12.544,18.816l16,80
			c1.536,7.616,8.192,12.864,15.648,12.864c1.056,0,2.112-0.096,3.136-0.32C315.785,301.952,321.417,293.536,319.657,284.864z"/>
	</g>
</g>
<g>
</g>
<g>
</g>
<g>
</g>
<g>
</g>
<g>
</g>
<g>
</g>
<g>
</g>
<g>
</g>
<g>
</g>
<g>
</g>
<g>
</g>
<g>
</g>
<g>
</g>
<g>
</g>
<g>
</g>
</svg>
