<?xml version="1.0" encoding="iso-8859-1"?>
<!-- Generator: Adobe Illustrator 19.0.0, SVG Export Plug-In . SVG Version: 6.00 Build 0)  -->
<svg version="1.1" id="Capa_1" xmlns="http://www.w3.org/2000/svg" xmlns:xlink="http://www.w3.org/1999/xlink" x="0px" y="0px"
	 viewBox="0 0 512.014 512.014" style="enable-background:new 0 0 512.014 512.014;" xml:space="preserve">
<g>
	<g>
		<path d="M319.991,16.007c-8.832,0-16,7.168-16,16c0,26.464-21.536,48-48,48s-48-21.536-48-48c0-8.832-7.168-16-16-16
			c-8.832,0-16,7.168-16,16c0,44.096,35.904,80,80,80c44.128,0,80-35.904,80-80C335.991,23.175,328.823,16.007,319.991,16.007z"/>
	</g>
</g>
<g>
	<g>
		<path d="M511.799,413.383L456.727,82.855c-6.464-38.72-39.648-66.848-78.944-66.848H134.199
			c-39.264,0-72.448,28.096-78.912,66.848L0.215,413.383c-0.768,4.608,0.544,9.376,3.584,12.96
			c3.008,3.616,7.488,5.664,12.192,5.664h64c7.328,0,13.728-4.992,15.52-12.096l32.48-129.92v190.016c0,8.832,7.168,16,16,16h224
			c8.832,0,16-7.168,16-16V289.991l32.48,129.888c1.76,7.136,8.192,12.128,15.52,12.128h64c4.672,0,9.152-2.048,12.256-5.664
			C511.255,422.759,512.567,418.023,511.799,413.383z M444.503,400.007l-60.992-243.872c-1.984-7.84-8.832-13.216-17.504-12
			c-8,0.992-14.016,7.808-14.016,15.872v304h-192v-304c0-8.064-6.016-14.88-14.048-15.872c-8-1.088-15.52,4.16-17.472,12
			L67.479,400.007H34.871L86.839,88.103c3.872-23.232,23.808-40.096,47.36-40.096h243.584c23.552,0,43.488,16.864,47.392,40.128
			l51.968,311.872H444.503z"/>
	</g>
</g>
<g>
</g>
<g>
</g>
<g>
</g>
<g>
</g>
<g>
</g>
<g>
</g>
<g>
</g>
<g>
</g>
<g>
</g>
<g>
</g>
<g>
</g>
<g>
</g>
<g>
</g>
<g>
</g>
<g>
</g>
</svg>
