<?xml version="1.0" encoding="utf-8"?>
<!-- Generator: Adobe Illustrator 20.0.0, SVG Export Plug-In . SVG Version: 6.00 Build 0)  -->
<svg version="1.1" id="Layer_1" xmlns="http://www.w3.org/2000/svg" xmlns:xlink="http://www.w3.org/1999/xlink" x="0px" y="0px"
	 viewBox="0 0 155 23.4" style="enable-background:new 0 0 155 23.4;" xml:space="preserve">
<g>
	<g>
		<g>
			<g>
				<rect x="150.8" y="18.5" width="4.2" height="4.3"/>
				<path d="M142.1,6.3h-2.6V9h2.6v9.8c0.1,2.8,0.7,4.2,4.3,4.2c0.8,0,1.5-0.1,2.3-0.2V20c-0.5,0.1-1,0.1-1.5,0.1
					c-1.6,0-1.7-0.8-1.7-2.3V9h3.1V6.3h-3.1v-5H142L142.1,6.3L142.1,6.3z"/>
				<polygon points="129.2,14.2 123.3,22.9 127.4,22.9 131.3,16.8 135.3,22.9 139.5,22.9 133.5,14 138.9,6.3 134.9,6.3 131.5,11.4 
					128.2,6.3 123.8,6.3 				"/>
				<path d="M112.2,13.1c0.1-2.5,1.7-4.4,4.1-4.4s3.8,2.1,4,4.4H112.2z M108.8,14.6c0,5.1,2.7,8.7,7.7,8.7c3.4,0,6.4-2,7.1-5.6h-3.3
					c-0.6,1.8-1.8,2.8-3.8,2.8c-2.9,0-4.2-2.3-4.2-4.9h11.5c0.6-5-2.5-9.7-7.4-9.7C111.7,5.9,108.8,9.9,108.8,14.6"/>
				<polygon points="92.7,0 88.7,0 88.7,22.9 92.3,22.9 92.3,6.1 92.4,6.1 102.3,22.9 106.3,22.9 106.3,0 102.7,0 102.7,16.8 
					102.6,16.8 				"/>
			</g>
			<polygon points="22.4,22.9 28.4,0 24.6,0 20.6,17.5 20.5,17.5 16.2,0 12.3,0 7.9,17.5 7.8,17.5 3.9,0 0,0 5.7,22.9 9.6,22.9 
				14.2,5.4 14.3,5.4 18.6,22.9 			"/>
			<path d="M40.1,22.9h3.5V11.5c0-3.7-2.1-5.6-5.6-5.6c-2.1,0-3.9,1.1-4.7,2.6h-0.1V0h-3.5v22.9h3.5v-9.8c0-2.4,1.5-4.4,3.8-4.4
				c2.1,0,3,1.1,3.1,3.7C40.1,12.4,40.1,22.9,40.1,22.9z"/>
			<path d="M58,14.6c0,2.9-1.4,5.9-4.5,5.9s-4.5-3-4.5-5.9s1.4-5.8,4.5-5.8C56.6,8.8,58,11.7,58,14.6 M61.4,14.6
				c0-5-2.9-8.7-7.9-8.7s-7.9,3.7-7.9,8.7c0,5.1,2.9,8.7,7.9,8.7S61.4,19.7,61.4,14.6"/>
			<path d="M66.9,4.3V0h-3.8v4.3H65c0,1.4-0.4,2.6-1.9,2.9v1.9C65.4,8.7,66.9,6.8,66.9,4.3"/>
			<path d="M77.6,11h3.6c-0.4-3.7-3.3-5.1-6.6-5.1C71.7,5.9,68,7,68,10.6c0,3.4,2.5,4.3,5,4.9c2.5,0.6,5,0.8,5.1,2.8
				c0.1,1.9-2.2,2.2-3.5,2.2c-1.9,0-3.3-0.7-3.6-2.9h-3.5c0.1,3.9,3,5.8,7,5.8c3.3,0,7-1.4,7-5.4c0-3.3-2.6-4.2-5.1-4.8
				c-2.6-0.6-5.1-0.9-5.1-2.7c0-1.4,1.9-1.7,2.9-1.7C76,8.8,77.3,9.2,77.6,11"/>
		</g>
	</g>
</g>
</svg>
